<svg version="1.0" xmlns="http://www.w3.org/2000/svg" width="66.000000pt" height="56.000000pt" viewBox="0 0 66.000000 56.000000" preserveAspectRatio="xMidYMid meet"> <g transform="translate(0.000000,56.000000) scale(0.100000,-0.100000)" stroke="none" fill="hsl(0, 95%, 48%)"> <path d="M385 495 c-71 -25 -72 -33 -3 -28 60 5 67 4 77 -16 6 -11 24 -27 39 -35 46 -24 82 -63 82 -91 0 -29 -43 -103 -74 -125 -11 -8 -34 -23 -51 -34 l-30 -18 27 29 c18 19 31 48 38 83 13 68 -7 115 -62 144 -36 18 -37 18 -70 -1 -18 -10 -42 -37 -53 -58 -11 -22 -23 -42 -26 -45 -3 -3 -7 -28 -8 -56 -3 -70 28 -108 85 -107 l39 1 -55 -19 c-80 -29 -169 -23 -209 15 -18 17 -31 42 -35 68 -7 41 8 108 24 108 5 0 11 8 14 18 4 10 20 34 37 53 l32 34 -5 -28 c-4 -18 -1 -30 7 -33 10 -4 8 -21 -6 -76 -22 -84 -24 -108 -6 -108 25 0 35 17 42 75 4 33 11 65 15 70 4 6 10 34 11 64 4 58 -7 73 -34 47 -14 -15 -27 -12 -27 6 0 5 4 7 9 4 5 -3 11 3 14 13 7 30 -79 -33 -114 -83 -16 -22 -34 -47 -40 -54 -18 -22 -5 -135 20 -175 11 -19 39 -47 60 -62 35 -24 47 -26 98 -22 69 6 172 41 227 76 21 14 46 31 55 36 22 14 37 34 66 89 22 42 24 53 15 87 -12 45 -52 95 -83 105 -12 3 -31 14 -42 23 -35 30 -67 38 -100 26z m56 -124 c15 -2 28 -56 23 -94 -12 -79 -38 -107 -99 -107 -30 0 -45 5 -49 16 -12 31 -6 91 14 133 21 43 50 62 85 56 11 -2 23 -4 26 -4z"/> </g> </svg>