<svg viewBox="0 0 96 96" xmlns="http://www.w3.org/2000/svg" xmlns:xlink="http://www.w3.org/1999/xlink" overflow="hidden"><path d="M16.225 61.925C13.1558 60.801 10.6533 58.5126 9.26 55.556 7.38333 51.3762 7.86685 46.5143 10.53 42.786 13.2423 39.1073 17.773 37.2388 22.29 37.936L25.84 38.526 25.84 34.656C25.8712 27.5725 30.6858 21.4052 37.55 19.656 44.4355 17.9962 51.5544 21.315 54.71 27.656L55.92 30.066 58.43 29.176C62.1857 27.8512 66.3509 28.4329 69.6 30.736 72.8306 33.1009 74.7429 36.8623 74.75 40.866L74.75 43.986 78.83 43.986C84.0123 44.1806 88.0557 48.5394 87.8611 53.7217 87.6754 58.6695 83.6796 62.623 78.73 62.756L73.48 62.756 60.52 62.734 60.52 68.966 68.17 68.986 78.73 68.986C87.3653 68.7816 94.1999 61.6156 93.9956 52.9803 93.8152 45.3617 88.1701 38.9821 80.63 37.876 79.8336 32.9856 77.1472 28.604 73.15 25.676 69.0123 22.7471 63.8469 21.6611 58.88 22.676 53.9935 15.1316 44.8806 11.4888 36.14 13.586 27.6015 15.7626 21.2129 22.8654 19.95 31.586 14.2936 31.7576 9.02462 34.5007 5.64 39.036 1.62044 44.6216 0.888423 51.928 3.72 58.2 6.60449 64.3827 12.649 68.4841 19.46 68.88L26.8 68.88 34.52 68.901 34.52 62.689 21.52 62.666 19.72 62.666C18.5824 62.5935 17.4602 62.3647 16.385 61.986Z"/><path d="M55.52 80.986 55.52 56.986 68.02 56.986 47.52 32.986 27.02 56.986 39.52 56.986 39.52 80.986 55.52 80.986Z"/></svg>